<?xml version="1.0" encoding="UTF-8"?>
<svg width="132px" height="33px" viewBox="0 0 132 33" version="1.1" xmlns="http://www.w3.org/2000/svg" xmlns:xlink="http://www.w3.org/1999/xlink">
    <!-- Generator: Sketch 47.1 (45422) - http://www.bohemiancoding.com/sketch -->
    <title>logotipo-singular copy</title>
    <desc>Created with Sketch.</desc>
    <defs></defs>
    <g id="plugin" stroke="none" stroke-width="1" fill="none" fill-rule="evenodd">
        <g id="--copy" transform="translate(-185.000000, -48.000000)" fill-rule="nonzero" fill="#202020">
            <g id="logotipo-singular-copy" transform="translate(185.000000, 48.000000)">
                <path d="M1.477842,15.9319641 C2.68015414,16.7946085 4.13294798,17.4685494 5.81117534,17.4685494 C7.28901734,17.4685494 8.76685934,16.902439 8.76685934,15.3658537 C8.76685934,11.6726573 0.626204239,12.1309371 0.626204239,5.84980745 C0.626204239,2.77663671 2.90558767,0 7.01348748,0 C9.04238921,0 10.7456647,0.485237484 11.8477842,1.07830552 L11.8477842,4.90629012 C10.194605,4.0436457 8.66666667,3.55840822 7.13872832,3.55840822 C5.93641618,3.55840822 4.85934489,4.01668806 4.85934489,5.44544288 C4.85934489,8.92297818 13,8.43774069 13,14.9614891 C13,18.6816431 9.96917148,21 5.98651252,21 C3.75722543,21 1.52793834,20.3530167 0,19.139923 L1.477842,15.9319641 Z" id="XMLID_425_"></path>
                <polygon id="XMLID_423_" points="16 0 19 0 19 20 16 20"></polygon>
                <path d="M22,0 L26.0283286,0 L34.0339943,10.5263158 C34.7733711,11.5 35.4107649,12.3684211 35.9716714,13.2631579 L36.0226629,13.2631579 C35.9971671,12.2368421 35.9716714,10.8947368 35.9716714,9.94736842 L35.9716714,0 L40,0 L40,20 L36.3286119,20 L28.0169972,9.05263158 C27.3031161,8.07894737 26.6912181,7.21052632 26.0283286,6.28947368 L25.9773371,6.28947368 C26.0538244,7.02631579 26.0538244,8.26315789 26.0538244,9.26315789 L26.0538244,20 L22.0254958,20 L22.0254958,0 L22,0 Z" id="XMLID_421_"></path>
                <path d="M60.9739508,19.3307692 C59.0202605,20.3538462 56.3111433,21 53.5499276,21 C46.8552822,21 43,16.6923077 43,10.85 C43,4.65769231 47.3502171,0 54.0969609,0 C56.4413893,0 58.3429812,0.430769231 59.984081,0.996153846 L59.984081,4.95384615 C58.3690304,4.14615385 56.5976845,3.58076923 54.4356006,3.58076923 C49.7988423,3.58076923 47.4023155,6.46153846 47.4023155,10.6076923 C47.4023155,14.7 49.7206946,17.4730769 53.8104197,17.4730769 C55.0347323,17.4730769 56.154848,17.2576923 56.8842258,16.9346154 L56.8842258,10.6884615 L61,10.6884615 L61,19.3307692 L60.9739508,19.3307692 Z" id="XMLID_419_"></path>
                <path d="M63.8577982,17.1373057 C63.2859327,15.9948187 63,14.5531088 63,12.8665803 L63,0 L67.1070336,0 L67.1070336,12.6217617 C67.1070336,13.6826425 67.3149847,14.634715 67.6788991,15.3419689 C68.3807339,16.7020725 69.6804281,17.4093264 71.5259939,17.4093264 C73.3195719,17.4093264 74.6452599,16.6748705 75.3211009,15.3419689 C75.7110092,14.607513 75.8929664,13.6826425 75.8929664,12.5673575 L75.8929664,0 L80,0 L80,12.8665803 C80,14.5531088 79.6880734,15.9948187 79.1422018,17.1373057 C77.8425076,19.7759067 75.1651376,21 71.5,21 C67.8348624,21 65.1574924,19.7759067 63.8577982,17.1373057 Z" id="XMLID_417_"></path>
                <polygon id="XMLID_415_" points="83 6 87.108747 6 87.108747 22.6315789 94 22.6315789 94 26 83 26"></polygon>
                <polygon id="XMLID_413_" points="88.4031008 33 88 30.0027248 98.4806202 28.3678474 97.8003876 23.3269755 99.9166667 23 101 31.0381471"></polygon>
                <polygon id="XMLID_411_" points="92 12 92 6 95 6 95 11.9243697"></polygon>
                <polygon id="XMLID_409_" points="97.4146341 4 92 2.36184211 92.6341463 1 98 2.63815789"></polygon>
                <path d="M104.131868,0 L107.483516,0 L116,20 L111.412088,20 L109.406593,15.1308901 L102.318681,15.1308901 L100.395604,20 L96,20 L104.131868,0 Z M108.087912,11.8324607 L106.879121,8.48167539 C106.384615,7.04188482 106.082418,6.17801047 105.917582,5.52356021 L105.862637,5.52356021 C105.67033,6.23036649 105.395604,7.06806283 104.818681,8.5078534 L103.554945,11.8324607 L108.087912,11.8324607 Z" id="XMLID_406_"></path>
                <path d="M117.025862,0 L122.896552,0 C124.655172,0 125.974138,0.263157895 127.008621,0.763157895 C129.284483,1.76315789 130.137931,3.68421053 130.137931,5.78947368 C130.137931,8.39473684 128.534483,10.2105263 126.310345,10.9210526 L126.310345,10.9736842 C126.905172,11.3157895 127.784483,12.3947368 128.818966,14.2631579 L132,20 L127.318966,20 L124.732759,15.2105263 C123.75,13.3157895 123.051724,12.5789474 122.586207,12.4473684 L121.086207,12.4473684 L121.086207,20 L117,20 L117,0 L117.025862,0 Z M122.637931,9.07894737 C123.543103,9.07894737 124.112069,8.92105263 124.603448,8.65789474 C125.37931,8.18421053 125.922414,7.34210526 125.922414,6.23684211 C125.922414,5.18421053 125.456897,4.26315789 124.577586,3.81578947 C124.137931,3.55263158 123.568966,3.39473684 122.663793,3.39473684 L121.112069,3.39473684 L121.112069,9.07894737 L122.637931,9.07894737 Z" id="XMLID_403_"></path>
            </g>
        </g>
    </g>
</svg>